<?xml version="1.0" standalone="no"?>
<!DOCTYPE svg PUBLIC "-//W3C//DTD SVG 20010904//EN"
 "http://www.w3.org/TR/2001/REC-SVG-20010904/DTD/svg10.dtd">
<svg version="1.0" xmlns="http://www.w3.org/2000/svg"
 width="860.000000pt" height="887.000000pt" viewBox="0 0 860.000000 887.000000"
 preserveAspectRatio="xMidYMid meet">

<g transform="translate(0.000000,887.000000) scale(0.100000,-0.100000)"
fill="#000000" stroke="none">
<path d="M5105 8129 c-38 -5 -104 -20 -145 -34 -41 -13 -86 -26 -100 -29 -40
-9 -177 -91 -274 -166 -129 -98 -191 -180 -277 -359 l-31 -64 16 -79 c22 -111
23 -108 -28 -108 -41 0 -44 -2 -50 -31 -9 -49 -8 -56 15 -62 20 -5 21 -10 14
-69 -4 -35 -14 -83 -21 -108 -8 -25 -14 -61 -14 -81 0 -32 38 -198 54 -239 5
-13 -12 -20 -91 -38 -92 -21 -219 -74 -289 -121 l-31 -21 -41 62 c-178 275
-454 452 -783 503 l-37 5 -1 103 c-2 85 -6 111 -28 159 -44 99 -174 203 -279
224 -28 5 -31 3 -42 -33 -30 -100 -44 -230 -39 -355 l5 -126 -77 -27 c-206
-72 -416 -239 -539 -428 -232 -359 -235 -825 -7 -1178 l46 -70 -31 -39 c-59
-74 -84 -146 -88 -247 -4 -92 -4 -92 41 -183 l45 -92 -27 7 c-83 21 -157 30
-246 29 -180 -3 -368 -83 -491 -210 -107 -110 -169 -216 -210 -362 -24 -85
-26 -105 -22 -220 4 -108 10 -140 35 -212 68 -194 191 -339 369 -436 117 -64
231 -88 391 -81 218 8 360 71 514 227 70 71 94 104 132 181 70 142 91 236 84
384 -4 98 -10 136 -34 207 -36 104 -104 216 -172 283 -28 28 -51 54 -51 59 0
5 18 6 40 2 72 -11 191 29 264 91 45 38 104 119 117 162 l11 38 152 -5 c137
-4 162 -2 268 22 190 43 366 131 494 249 28 26 54 47 58 47 3 0 27 -23 53 -51
103 -111 263 -208 403 -245 36 -10 69 -21 73 -25 5 -4 -1 -47 -14 -95 -18 -73
-23 -116 -23 -239 0 -153 9 -219 46 -335 25 -81 98 -231 109 -225 32 20 110
215 134 335 30 146 20 387 -20 526 -6 19 -2 22 52 27 125 14 261 65 374 141
46 31 56 34 65 21 10 -13 13 -12 29 5 9 10 45 37 79 59 101 66 230 86 351 55
33 -8 69 -18 81 -20 17 -5 24 3 42 43 32 76 36 116 16 158 -21 46 -92 87 -186
111 l-69 16 3 56 3 56 42 11 c65 16 62 25 -8 25 l-64 0 0 117 c0 65 -3 139 -7
166 l-8 47 88 0 c106 0 131 6 125 28 -2 10 11 31 32 52 l36 35 59 -33 59 -32
63 27 c35 15 92 44 128 64 61 34 66 39 80 90 l16 54 57 3 c54 3 58 5 98 53 40
47 43 48 63 34 12 -9 50 -30 85 -47 112 -55 260 -49 374 15 22 12 36 27 35 36
-5 27 -150 130 -258 184 l-106 51 34 91 c79 210 80 437 2 690 -97 314 -342
568 -660 685 -148 54 -348 72 -535 49z m405 -409 c138 -40 280 -137 361 -246
55 -74 115 -205 128 -278 14 -75 14 -202 0 -285 -27 -167 -162 -354 -327 -455
-152 -92 -354 -120 -540 -75 -209 50 -406 232 -474 439 -29 86 -31 107 -32
225 -1 152 12 203 82 340 98 190 271 311 512 359 53 10 217 -3 290 -24z
m-2009 -1100 c11 -48 7 -59 -15 -41 -8 7 -19 10 -25 7 -5 -3 -116 -161 -247
-351 -130 -190 -242 -345 -248 -344 -6 0 -69 66 -141 146 -71 80 -135 147
-142 150 -7 3 -63 -22 -125 -55 -62 -33 -164 -85 -227 -117 -108 -55 -115 -57
-127 -40 -13 18 -4 45 16 45 3 0 111 54 238 120 127 66 233 120 236 120 2 0
62 -64 132 -142 70 -79 131 -144 134 -146 6 -2 170 232 394 560 58 85 59 88
42 107 -17 19 -17 20 21 26 21 4 43 8 48 10 16 4 26 -10 36 -55z m-171 -660
l0 -370 -105 0 -105 0 0 226 0 226 67 97 c92 133 134 191 139 191 2 0 4 -166
4 -370z m1422 211 c89 -5 100 -8 125 -34 l28 -28 -23 -17 c-13 -10 -105 -69
-205 -131 -100 -63 -205 -129 -234 -147 -28 -19 -58 -37 -66 -40 -12 -4 -233
134 -377 235 -21 15 -26 29 -31 87 -4 38 -5 72 -2 77 5 9 647 8 785 -2z
m-2020 -88 l48 -47 0 -223 0 -223 -105 0 -105 0 0 245 0 245 48 24 c26 14 51
25 57 26 5 0 31 -21 57 -47z m-232 -268 l0 -225 -105 0 -105 0 0 173 0 172
103 52 c56 29 103 52 105 52 1 1 2 -100 2 -224z m2418 -64 l-3 -270 -29 -30
c-15 -16 -40 -35 -55 -41 -18 -7 -167 -10 -484 -8 l-457 3 -31 31 -31 31 35
74 c46 99 83 216 97 317 l12 82 37 -22 c20 -12 103 -67 185 -121 83 -55 157
-102 165 -104 9 -2 57 22 106 53 50 31 110 69 135 84 25 15 103 64 174 109 71
44 133 81 138 81 5 0 8 -113 6 -269z m-2006 134 c27 -30 53 -55 57 -55 3 0 22
23 41 51 18 28 38 53 42 55 4 3 8 -74 8 -170 l0 -176 -105 0 -105 0 0 175 c0
96 3 175 6 175 3 0 28 -25 56 -55z m-967 -1284 c133 -47 258 -161 316 -289 38
-83 48 -131 49 -227 0 -152 -51 -275 -160 -385 -107 -108 -233 -160 -387 -160
-401 0 -667 415 -495 775 69 142 173 235 327 288 73 25 90 27 185 24 73 -3
124 -11 165 -26z"/>
<path d="M5168 7580 c-99 -26 -187 -80 -257 -156 -205 -224 -199 -546 13 -759
82 -82 159 -126 263 -149 275 -61 508 53 630 310 94 197 54 431 -101 601 -132
144 -352 206 -548 153z m300 -70 c70 -22 163 -81 209 -133 191 -218 153 -561
-80 -721 -201 -138 -461 -115 -628 57 -105 107 -143 207 -137 360 4 92 8 110
40 177 75 158 208 256 383 283 49 8 146 -3 213 -23z"/>
<path d="M5290 7396 c0 -17 -7 -26 -25 -30 -38 -10 -77 -69 -83 -125 -6 -66
23 -118 110 -200 79 -75 98 -105 98 -156 0 -95 -118 -99 -137 -4 -5 28 -8 29
-42 23 -20 -4 -38 -8 -40 -10 -2 -2 4 -24 13 -48 16 -42 74 -106 96 -106 6 0
10 -11 10 -25 0 -22 4 -25 35 -25 30 0 35 3 35 23 0 16 10 26 39 38 49 21 75
67 75 134 0 67 -29 119 -101 185 -90 81 -120 145 -97 205 19 47 98 36 109 -15
6 -26 11 -31 28 -26 12 3 30 6 40 6 50 0 -24 129 -75 130 -12 0 -18 8 -18 25
0 22 -4 25 -35 25 -30 0 -35 -3 -35 -24z"/>
<path d="M1629 4471 c-110 -36 -208 -130 -250 -239 -93 -245 61 -511 321 -551
226 -36 429 112 471 342 31 166 -66 349 -227 428 -60 30 -78 34 -163 36 -73 2
-110 -2 -152 -16z m157 -176 c9 -88 21 -165 26 -172 5 -6 44 -14 86 -18 163
-13 172 -29 25 -40 -73 -5 -104 -12 -122 -26 -31 -24 -52 -24 -79 1 -24 22
-29 59 -11 77 8 8 46 277 49 342 0 2 2 2 5 0 2 -3 12 -77 21 -164z"/>
<path d="M5570 5562 c0 -105 54 -219 136 -292 21 -18 67 -47 103 -64 58 -26
77 -30 156 -31 52 0 106 6 129 14 34 12 36 15 23 28 -12 13 -23 13 -73 3 -217
-45 -434 128 -434 346 0 37 -11 54 -36 54 -2 0 -4 -26 -4 -58z"/>
<path d="M5655 5578 c-3 -8 -1 -36 5 -62 33 -147 146 -246 292 -254 72 -4 118
2 118 17 0 15 -109 122 -178 174 -89 69 -230 143 -237 125z"/>
<path d="M5195 5141 c-85 -22 -205 -102 -205 -137 0 -20 110 -154 171 -207 30
-27 81 -66 113 -88 55 -37 60 -38 77 -23 22 20 35 13 44 -23 10 -41 26 -45 56
-17 l26 25 -3 -34 c-4 -33 -2 -36 37 -51 53 -22 67 -11 98 79 31 87 27 194
-11 275 -29 64 -119 148 -194 182 -52 23 -158 33 -209 19z"/>
<path d="M5650 5119 c-57 -26 -57 -25 -33 -52 38 -40 82 -141 93 -213 13 -86
2 -172 -35 -251 -14 -31 -24 -57 -23 -58 12 -10 152 -25 229 -25 l95 0 53 -54
c30 -30 66 -60 80 -66 24 -10 28 -18 39 -98 13 -101 39 -195 51 -188 5 3 25
52 46 108 20 57 41 112 45 123 18 43 24 73 29 165 l6 94 85 47 c97 53 265 187
282 225 9 20 8 32 -6 61 -24 51 -82 119 -122 144 l-35 21 -37 -25 c-54 -35
-145 -120 -173 -161 -13 -20 -27 -36 -30 -36 -4 0 -10 17 -14 38 -9 50 -84
209 -101 216 -39 15 -119 -109 -139 -217 -6 -31 -12 -37 -39 -42 -55 -11 -78
5 -93 66 -21 83 -61 158 -97 180 -40 24 -99 24 -156 -2z"/>
<path d="M5360 4660 c0 -5 5 -10 10 -10 6 0 10 5 10 10 0 6 -4 10 -10 10 -5 0
-10 -4 -10 -10z"/>
<path d="M5455 4629 c-4 -6 -5 -12 -2 -15 2 -3 7 2 10 11 7 17 1 20 -8 4z"/>
<path d="M3799 3702 c-98 -51 -147 -154 -156 -327 -11 -218 66 -373 199 -406
156 -37 278 73 308 277 5 38 10 86 10 107 l0 37 -140 0 -140 0 0 -65 0 -65 66
0 67 0 -5 -44 c-15 -127 -146 -157 -193 -44 -24 55 -32 223 -15 303 20 95 75
135 144 104 23 -11 56 -62 56 -88 0 -15 -2 -15 74 19 l66 30 -15 38 c-57 137
-198 191 -326 124z"/>
<path d="M2810 3345 l0 -378 123 5 c93 4 133 10 168 25 61 27 116 84 148 152
24 52 26 66 26 191 0 156 -14 212 -71 278 -19 22 -60 53 -91 68 -51 25 -70 29
-180 32 l-123 4 0 -377z m242 219 c14 -7 37 -30 50 -51 21 -35 23 -49 23 -163
0 -108 -3 -130 -21 -160 -25 -44 -78 -80 -115 -80 l-29 0 0 241 0 241 33 -7
c17 -4 44 -14 59 -21z"/>
<path d="M3390 3345 l0 -376 73 3 72 3 0 370 0 370 -72 3 -73 3 0 -376z"/>
<path d="M4260 3345 l0 -375 75 0 75 0 0 375 0 375 -75 0 -75 0 0 -375z"/>
<path d="M4494 3706 c-3 -7 -4 -38 -2 -67 l3 -54 58 -3 57 -3 0 -304 0 -305
75 0 75 0 0 305 0 305 55 0 55 0 0 70 0 70 -185 0 c-148 0 -187 -3 -191 -14z"/>
<path d="M4950 3363 c-45 -196 -85 -365 -88 -375 -4 -16 3 -18 72 -18 60 0 76
3 76 15 0 7 5 37 11 65 l11 51 76 -3 76 -3 8 -40 c18 -92 11 -85 88 -85 59 0
70 3 70 17 0 15 -143 671 -156 716 -5 14 -18 17 -83 17 l-77 0 -84 -357z m181
35 c10 -73 21 -143 24 -155 5 -22 2 -23 -46 -23 l-52 0 6 33 c2 17 13 89 23
159 10 70 20 125 23 123 2 -3 12 -64 22 -137z"/>
<path d="M5415 3707 c-3 -6 -4 -174 -3 -372 l3 -360 158 -3 158 -3 -3 73 -3
73 -82 3 -83 3 0 299 0 300 -70 0 c-47 0 -72 -4 -75 -13z"/>
<path d="M1805 2621 c-164 -5 -195 -9 -228 -26 -26 -14 -162 -168 -454 -515
-230 -272 -509 -603 -621 -735 l-203 -240 5 -50 c3 -27 6 -143 6 -257 l0 -208
3995 0 3995 0 0 262 0 263 -593 595 c-326 327 -653 657 -727 733 -74 76 -153
148 -175 159 -39 20 -175 39 -175 24 0 -4 5 -17 11 -28 6 -11 14 -40 18 -63 6
-46 -40 7 911 -1043 146 -161 265 -300 265 -309 0 -10 -13 -20 -30 -26 -49
-14 -6960 -22 -7013 -8 -34 9 -43 16 -40 29 4 15 213 294 874 1167 72 95 134
168 155 180 25 15 57 20 131 23 l97 4 6 29 c6 28 0 51 -13 47 -4 -1 -92 -4
-197 -7z"/>
</g>
</svg>
