<?xml version="1.0" encoding="UTF-8"?>
<!-- Generator: visioncortex VTracer 0.6.1 -->
<svg version="1.1" xmlns="http://www.w3.org/2000/svg" width="1280" height="1280">
<path d="M0 0 C4.75929362 0.00918124 9.51809619 0.00226957 14.27734375 -0.02050781 C41.47202516 -0.14990576 68.06291365 0.23613396 94.96459961 4.44604492 C96.87939333 4.72800373 98.79433732 5.00894513 100.70947266 5.28857422 C104.52901104 5.86070804 108.33688923 6.4818214 112.14135742 7.14648438 C114.29186623 7.52203837 116.44436104 7.88420119 118.59741211 8.24487305 C144.07639089 12.55783621 144.07639089 12.55783621 145.96459961 14.44604492 C147.85090534 14.67121205 149.73739617 14.89492915 151.62475586 15.11108398 C155.65316235 15.68777156 159.54011378 16.76275661 163.46459961 17.82104492 C164.66922852 18.13428711 164.66922852 18.13428711 165.89819336 18.45385742 C169.76481375 19.4816139 173.52014225 20.60959351 177.25366211 22.05151367 C180.21695553 23.16508815 182.74129471 23.90647029 185.83959961 24.38354492 C190.37484157 25.20686577 194.33875596 26.67448692 198.54272461 28.54370117 C200.99342136 29.54507208 200.99342136 29.54507208 203.83178711 29.91870117 C207.36603676 30.51361851 210.47700696 31.58534829 213.83959961 32.82104492 C214.99202148 33.2412793 216.14444336 33.66151367 217.33178711 34.09448242 C219.1300293 34.76350586 219.1300293 34.76350586 220.96459961 35.44604492 C222.14280273 35.88303711 223.32100586 36.3200293 224.53491211 36.77026367 C230.07161968 38.85137113 235.58283525 40.99842365 241.09155273 43.15234375 C242.33964512 43.63957481 243.58834439 44.12525415 244.83764648 44.609375 C251.0128727 47.00284214 257.12435539 49.38282106 263.00024414 52.44677734 C265.34061383 53.63732335 267.72073797 54.7121685 270.11694336 55.78588867 C321.68048503 78.90150608 369.49212447 109.39818412 412.96459961 145.44604492 C413.54870605 145.92960449 414.1328125 146.41316406 414.73461914 146.91137695 C421.67174908 152.67076645 428.41327591 158.60230305 435.01538086 164.74291992 C437.19035541 166.75903325 439.41689294 168.70376438 441.66430664 170.63867188 C445.84584259 174.29305188 449.79883015 178.13541543 453.71850586 182.06713867 C454.42305405 182.77073013 455.12760223 183.47432159 455.85350037 184.19923401 C457.33113328 185.6761914 458.80752417 187.15439235 460.28271484 188.63378906 C462.52126442 190.87769577 464.76510434 193.11621197 467.00952148 195.35424805 C468.45450365 196.7998911 469.89917553 198.24584438 471.34350586 199.69213867 C472.33441978 200.68001625 472.33441978 200.68001625 473.34535217 201.68785095 C477.7489791 206.11336056 481.90391524 210.70499897 485.96459961 215.44604492 C486.93853141 216.57497407 487.9124853 217.70388415 488.88647461 218.83276367 C491.40123788 221.76424411 493.91021722 224.70066825 496.41821289 227.63793945 C497.89745168 229.36753252 499.38177385 231.09263833 500.86694336 232.81713867 C506.87091236 239.8137583 512.53652959 246.98925993 517.96459961 254.44604492 C518.44123047 255.09669922 518.91786133 255.74735352 519.40893555 256.41772461 C541.25031362 286.25153125 562.09195494 317.22339177 578.09057617 350.64233398 C578.98210252 352.48216545 579.90178227 354.3050728 580.83178711 356.12573242 C582.91854966 360.21202271 584.95256839 364.3224816 586.96459961 368.44604492 C587.3598584 369.25348145 587.75511719 370.06091797 588.16235352 370.89282227 C621.88478739 440.41673886 641.80318442 519.92021513 645.71850586 597.02807617 C645.8962205 600.35503336 645.8962205 600.35503336 646.47189331 603.23291016 C646.993025 606.63141826 647.09166974 609.83664322 647.09399414 613.27416992 C647.09574646 613.92865112 647.09749878 614.58313232 647.0993042 615.25744629 C647.10367668 617.40367345 647.10080104 619.54981704 647.09741211 621.69604492 C647.09808647 623.19767269 647.0990576 624.69930034 647.10031128 626.20092773 C647.10178202 629.34123783 647.09965378 632.4815194 647.0949707 635.62182617 C647.0892738 639.63651806 647.09255614 643.65114308 647.09854317 647.66583252 C647.10216563 650.76457213 647.10100245 653.86329603 647.09841537 656.96203613 C647.09775077 658.4419353 647.09855815 659.92183592 647.10089493 661.4017334 C647.10344918 663.47383374 647.099542 665.54582747 647.09399414 667.61791992 C647.09280075 669.38280762 647.09280075 669.38280762 647.09158325 671.18334961 C646.96803598 674.35775135 646.54499721 677.32655614 645.96459961 680.44604492 C645.79919212 682.08458249 645.65568869 683.7254894 645.53491211 685.36791992 C645.46369141 686.29628662 645.3924707 687.22465332 645.3190918 688.18115234 C645.20549316 689.67352417 645.20549316 689.67352417 645.08959961 691.19604492 C637.9466057 779.19264691 613.70636684 864.73735629 564.96459961 955.44604492 C564.4715332 956.29505371 563.9784668 957.1440625 563.47045898 958.01879883 C544.72557516 990.08843158 523.66513264 1021.30004175 499.31298828 1049.39477539 C496.20530438 1052.98044753 493.18554637 1056.62012327 490.21459961 1060.32104492 C487.04293889 1064.23123314 483.73339908 1067.83653964 480.08178711 1071.30151367 C478.22133513 1073.18599363 476.50665681 1075.11625539 474.78125 1077.12280273 C471.26020962 1081.15874176 467.57338784 1084.98251389 463.78100586 1088.76245117 C463.12180649 1089.42260727 462.46260712 1090.08276337 461.78343201 1090.76292419 C460.40063126 1092.14639998 459.01658885 1093.52863575 457.63134766 1094.90966797 C455.53229618 1097.00336161 453.43864021 1099.10234367 451.34545898 1101.2019043 C449.99096175 1102.55574063 448.6361543 1103.90926667 447.28100586 1105.26245117 C446.66616837 1105.8793129 446.05133087 1106.49617462 445.41786194 1107.13172913 C441.094483 1111.43229763 436.59066152 1115.47446355 431.96459961 1119.44604492 C430.88229741 1120.38453462 429.80021666 1121.32327988 428.71850586 1122.26245117 C391.7740583 1154.11626413 352.08253102 1181.96473436 309.17260742 1205.24584961 C307.72397421 1206.03327562 306.2779058 1206.82544246 304.8347168 1207.62280273 C232.35552501 1247.63770302 149.13754347 1270.37857217 50.38256836 1279.19995117 C47.05333746 1279.3785574 47.05333746 1279.3785574 44.16285706 1279.9523468 C40.84873408 1280.46393047 37.72674654 1280.58001407 34.37451172 1280.59130859 C32.43474709 1280.60087837 32.43474709 1280.60087837 30.45579529 1280.61064148 C29.05117836 1280.61217255 27.64656093 1280.61328523 26.24194336 1280.61401367 C24.77624989 1280.61723519 23.31055672 1280.6205999 21.84486389 1280.62409973 C18.76749938 1280.63008107 15.69016288 1280.63194117 12.61279297 1280.63134766 C9.49912623 1280.63126707 6.38560872 1280.63809909 3.27197266 1280.65185547 C-13.17533795 1280.7234185 -29.48034325 1280.72520055 -45.83389282 1278.71231079 C-48.69305892 1278.36650306 -51.55687793 1278.08105646 -54.42247009 1277.79440308 C-132.09376544 1269.94033301 -208.82319585 1249.46067292 -290.34741211 1207.91088867 C-292.2681635 1206.86415767 -294.19202275 1205.82312143 -296.11791992 1204.78588867 C-311.3631527 1196.5659735 -326.06079347 1187.81764918 -340.44042969 1178.1640625 C-343.1528771 1176.36826868 -345.89585656 1174.62843567 -348.64868164 1172.89526367 C-353.46597425 1169.8433196 -358.12048527 1166.62385361 -362.72290039 1163.25854492 C-363.48691162 1162.70247559 -364.25092285 1162.14640625 -365.03808594 1161.57348633 C-367.3741058 1159.86916869 -369.70537169 1158.15854149 -372.03540039 1156.44604492 C-372.74986328 1155.92284668 -373.46432617 1155.39964844 -374.20043945 1154.8605957 C-382.38864863 1148.85221543 -390.33130946 1142.65610306 -398.02368164 1136.02416992 C-400.82063089 1133.6298943 -403.66389467 1131.31237924 -406.53540039 1129.00854492 C-412.33487401 1124.28961369 -417.7730936 1119.22055355 -423.22607422 1114.11181641 C-424.52039892 1112.9201854 -425.82928574 1111.74429469 -427.14746094 1110.57910156 C-434.29923553 1104.25459821 -441.05854961 1097.57560558 -447.79541016 1090.81640625 C-449.72649586 1088.87993943 -451.66289921 1086.94890536 -453.59985352 1085.01831055 C-459.62624993 1078.99515725 -465.52469302 1072.95060001 -471.03540039 1066.44604492 C-472.65507856 1064.67034271 -474.27951757 1062.89896185 -475.91040039 1061.13354492 C-479.94819361 1056.70108018 -483.80847473 1052.16862315 -487.57055664 1047.50073242 C-489.37625214 1045.26292912 -491.19519351 1043.04122593 -493.03149414 1040.82885742 C-500.4972324 1031.80131582 -507.51245181 1022.52871454 -514.26391602 1012.95629883 C-515.49559976 1011.21096086 -516.73159832 1009.46866312 -517.97094727 1007.72875977 C-526.79854928 995.33123448 -535.10143345 982.78068885 -542.75512695 969.62573242 C-543.89502695 967.68503311 -545.05975378 965.76467478 -546.24633789 963.85229492 C-560.68921334 940.5256128 -574.66497479 915.11709743 -583.95727539 889.28588867 C-585.19634609 886.02210463 -586.65936879 882.90998264 -588.16040039 879.75854492 C-590.30561491 875.20610495 -591.93449953 870.79661707 -593.26586914 865.95385742 C-594.13376637 863.12548169 -595.24026122 860.47558635 -596.41040039 857.75854492 C-600.54762369 848.06348549 -603.6792241 838.07303623 -606.34790039 827.88354492 C-607.35554546 824.31098513 -608.69924558 820.90790056 -610.03540039 817.44604492 C-610.38138207 816.11593757 -610.71516046 814.78258347 -611.03540039 813.44604492 C-611.34477539 812.41479492 -611.65415039 811.38354492 -611.97290039 810.32104492 C-613.03152126 806.6781437 -613.72320743 803.00132499 -614.37524414 799.26635742 C-614.92208314 796.93015766 -615.59122624 794.82055771 -616.39086914 792.56713867 C-618.6280297 785.97998143 -619.98554199 779.1814952 -621.41040039 772.38354492 C-621.56158325 771.66695709 -621.71276611 770.95036926 -621.86853027 770.21206665 C-624.10437624 759.5600842 -626.08411306 748.88367932 -627.78540039 738.13354492 C-627.97150879 736.97137451 -628.15761719 735.8092041 -628.34936523 734.61181641 C-628.84482232 731.34920709 -629.29498819 728.08606107 -629.71871948 724.81362915 C-629.93849531 723.17053112 -630.17234892 721.52927887 -630.41726685 719.88973999 C-633.9315247 696.08578407 -633.52941952 672.11739011 -633.48144531 648.11376953 C-633.47227246 643.30597495 -633.47915442 638.49866682 -633.50195312 633.69091797 C-633.63260393 605.98673401 -633.17399321 578.86775687 -629.03540039 551.44604492 C-628.77454994 549.59591283 -628.51502245 547.74559332 -628.25732422 545.89501953 C-627.64919663 541.64887623 -626.9583785 537.4217843 -626.22290039 533.19604492 C-626.09945251 532.47142059 -625.97600464 531.74679626 -625.84881592 531.00021362 C-623.17294929 515.34161779 -619.86842317 499.86431748 -616.03540039 484.44604492 C-615.7447168 483.27654297 -615.4540332 482.10704102 -615.15454102 480.90209961 C-593.37578693 394.86880947 -552.12865347 312.64020149 -487.03540039 231.44604492 C-486.54652344 230.85662109 -486.05764648 230.26719727 -485.55395508 229.65991211 C-480.02934671 223.02059067 -474.3761277 216.52762678 -468.51977539 210.17651367 C-467.22434212 208.75275918 -465.93264273 207.32457355 -464.68945312 205.85498047 C-459.00714264 199.16574628 -452.76843015 193.02843674 -446.55664062 186.83691406 C-444.60244415 184.88807623 -442.65364892 182.9339522 -440.70532227 180.97924805 C-434.64978484 174.92047223 -428.57630522 168.98480288 -422.03540039 163.44604492 C-420.25969818 161.82636676 -418.48831732 160.20192774 -416.72290039 158.57104492 C-411.32048582 153.65032712 -405.7337118 149.01811939 -400.03540039 144.44604492 C-398.91519523 143.53379203 -397.79542334 142.62100689 -396.67602539 141.70776367 C-367.75917134 118.21676583 -336.62552412 97.47121342 -304.03540039 79.44604492 C-303.01833008 78.87805176 -302.00125977 78.31005859 -300.95336914 77.72485352 C-235.74245452 41.4231911 -164.44422195 17.44326752 -90.78540039 5.69604492 C-89.62959473 5.50945313 -88.47378906 5.32286133 -87.28295898 5.13061523 C-84.01188332 4.63300793 -80.74084808 4.18235476 -77.45913696 3.76272583 C-75.76183102 3.540959 -74.06608326 3.30708559 -72.37167358 3.06417847 C-48.340362 -0.32149083 -24.21712263 -0.04893772 0 0 Z M-46.03540039 1.44604492 C-42.03540039 2.44604492 -42.03540039 2.44604492 -42.03540039 2.44604492 Z M55.96459961 1.44604492 C55.96459961 1.77604492 55.96459961 2.10604492 55.96459961 2.44604492 C57.61459961 2.44604492 59.26459961 2.44604492 60.96459961 2.44604492 C60.96459961 2.11604492 60.96459961 1.78604492 60.96459961 1.44604492 C59.31459961 1.44604492 57.66459961 1.44604492 55.96459961 1.44604492 Z M-617.03540039 492.44604492 C-616.03540039 494.44604492 -616.03540039 494.44604492 -616.03540039 494.44604492 Z M-619.03540039 501.44604492 C-618.03540039 503.44604492 -618.03540039 503.44604492 -618.03540039 503.44604492 Z M-622.03540039 515.44604492 C-621.03540039 517.44604492 -621.03540039 517.44604492 -621.03540039 517.44604492 Z M-624.03540039 526.44604492 C-623.03540039 528.44604492 -623.03540039 528.44604492 -623.03540039 528.44604492 Z M-627.03540039 544.44604492 C-626.03540039 546.44604492 -626.03540039 546.44604492 -626.03540039 546.44604492 Z M-628.03540039 551.44604492 C-627.03540039 553.44604492 -627.03540039 553.44604492 -627.03540039 553.44604492 Z M-629.03540039 558.44604492 C-628.03540039 561.44604492 -628.03540039 561.44604492 -628.03540039 561.44604492 Z M-630.03540039 567.44604492 C-629.03540039 570.44604492 -629.03540039 570.44604492 -629.03540039 570.44604492 Z M-631.03540039 577.44604492 C-630.03540039 579.44604492 -630.03540039 579.44604492 -630.03540039 579.44604492 Z M-632.03540039 586.44604492 C-632.03540039 588.09604492 -632.03540039 589.74604492 -632.03540039 591.44604492 C-631.70540039 591.44604492 -631.37540039 591.44604492 -631.03540039 591.44604492 C-631.03540039 589.79604492 -631.03540039 588.14604492 -631.03540039 586.44604492 C-631.36540039 586.44604492 -631.69540039 586.44604492 -632.03540039 586.44604492 Z M-632.03540039 689.44604492 C-632.03540039 691.09604492 -632.03540039 692.74604492 -632.03540039 694.44604492 C-631.70540039 694.44604492 -631.37540039 694.44604492 -631.03540039 694.44604492 C-631.03540039 692.79604492 -631.03540039 691.14604492 -631.03540039 689.44604492 C-631.36540039 689.44604492 -631.69540039 689.44604492 -632.03540039 689.44604492 Z M-631.03540039 701.44604492 C-630.03540039 703.44604492 -630.03540039 703.44604492 -630.03540039 703.44604492 Z M-630.03540039 710.44604492 C-629.03540039 713.44604492 -629.03540039 713.44604492 -629.03540039 713.44604492 Z M-629.03540039 719.44604492 C-628.03540039 722.44604492 -628.03540039 722.44604492 -628.03540039 722.44604492 Z M-627.03540039 734.44604492 C-626.03540039 736.44604492 -626.03540039 736.44604492 -626.03540039 736.44604492 Z M-624.03540039 752.44604492 C-623.03540039 754.44604492 -623.03540039 754.44604492 -623.03540039 754.44604492 Z " fill="#008C50" transform="translate(633.035400390625,-0.446044921875)"/>
<path d="M0 0 C0.57169922 0.41685059 1.14339844 0.83370117 1.73242188 1.26318359 C11.81374863 8.62749726 11.81374863 8.62749726 13 11 C13.09446302 13.1791589 13.12189947 15.36130625 13.12025452 17.54251099 C13.12110894 18.22208953 13.12196337 18.90166807 13.12284368 19.6018399 C13.12449697 21.88969703 13.11897959 24.1774816 13.11352539 26.46533203 C13.11324346 28.1010742 13.11340137 29.7368165 13.1139679 31.37255859 C13.11425564 35.82272247 13.10836258 40.27285958 13.10139394 44.72301722 C13.09515662 49.37018353 13.0945563 54.01735041 13.09336853 58.66452026 C13.09025633 67.46886907 13.08204444 76.27320551 13.07201904 85.07754886 C13.06085445 95.0991683 13.05534658 105.12078832 13.05032361 115.14241242 C13.03986174 135.76161519 13.02226445 156.38080682 13 177 C6.40020265 172.66372307 6.40020265 172.66372307 3.94921875 169.890625 C3.16200439 169.01809082 3.16200439 169.01809082 2.35888672 168.12792969 C1.8073291 167.50821289 1.25577148 166.88849609 0.6875 166.25 C-6.51117688 158.35191175 -14.18193486 151.04867185 -22.03710938 143.81005859 C-23.81778934 142.16802361 -25.59009081 140.51757266 -27.359375 138.86328125 C-32.80353964 133.79323552 -38.38457933 128.95362756 -44.18359375 124.29296875 C-46.63948264 122.29351414 -49.0402026 120.24334853 -51.43164062 118.16772461 C-59.52267009 111.17623884 -68.09348725 104.88280313 -76.75634766 98.62207031 C-78.75250493 97.17892897 -80.74240615 95.72769361 -82.73046875 94.2734375 C-156.76651735 40.39462582 -245.62398763 6.040355 -402.53125 0.78125 C-435.01922206 6.08838189 -468.33514028 20.48983887 -489 47 C-492.02774635 51.474587 -494.53117613 56.20069152 -497 61 C-497.556875 62.03898438 -498.11375 63.07796875 -498.6875 64.1484375 C-510.2734083 87.14646548 -509.21605482 113.36850493 -501.875 137.5 C-497.40784451 150.09657359 -491.10865721 162.14843813 -482 172 C-481.12859375 172.95132812 -480.2571875 173.90265625 -479.359375 174.8828125 C-468.55321786 186.33188625 -455.64845745 195.23689184 -442 203 C-441.33613281 203.37979004 -440.67226563 203.75958008 -439.98828125 204.15087891 C-411.47015974 220.27348722 -379.72920338 229.95836884 -348.26171875 238.5390625 C-347.32728817 238.79439255 -346.39285759 239.0497226 -345.43011093 239.31278992 C-322.08275417 245.66974213 -298.54422827 251.20148706 -274.98602295 256.71356201 C-247.92540256 263.045414 -220.8777104 269.39521922 -193.98046875 276.39453125 C-193.05549717 276.63410553 -192.13052559 276.87367981 -191.17752457 277.12051392 C-122.37207396 294.9878454 -50.19137126 319.84513415 2 370 C2.59458008 370.56734863 3.18916016 371.13469727 3.80175781 371.71923828 C49.58905823 415.62923577 72.46630733 476.17291737 74.12451172 539.15380859 C74.21769265 543.68582505 74.24655266 548.21710239 74.25 552.75 C74.25101212 553.96071671 74.25101212 553.96071671 74.25204468 555.19589233 C74.13723742 642.34318381 31.17125298 718.01624702 -29.01611328 778.20361328 C-33.96092678 783.09347351 -38.93454052 787.71247562 -44.42578125 791.984375 C-46.8392488 793.87413108 -49.15471876 795.85008547 -51.46459961 797.86425781 C-116.53623488 854.29612975 -205.91804516 883.54792746 -291 889 C-292.31669678 889.08612549 -293.63339355 889.17225098 -294.98999023 889.26098633 C-305.72678143 889.93012279 -316.43090816 890.20249777 -327.1875 890.1875 C-328.41114761 890.18659363 -328.41114761 890.18659363 -329.65951538 890.18566895 C-395.1203071 890.05570623 -460.0105879 877.70959595 -522 857 C-522.65575012 856.78106079 -523.31150024 856.56212158 -523.98712158 856.33654785 C-575.92960647 838.94669758 -626.36910833 816.09599595 -671.94921875 785.54101562 C-674.25845748 783.99433536 -676.57417054 782.45772139 -678.890625 780.921875 C-691.83199315 772.30232157 -704.07365567 762.97990831 -716 753 C-716.87058952 752.3885021 -716.87058952 752.3885021 -717.75876671 751.7646507 C-721.41684357 749.03526073 -722.83643172 747.73335202 -723.8613348 743.13823891 C-723.89052048 741.65433177 -723.88154918 740.16936073 -723.84178162 738.68569946 C-723.84776259 737.86386244 -723.85374356 737.04202542 -723.85990578 736.19528425 C-723.87141165 733.44891726 -723.83298581 730.70556239 -723.79467773 727.95947266 C-723.79270268 725.98817007 -723.7938126 724.01686234 -723.79777527 722.04556274 C-723.79978362 716.69852953 -723.75863096 711.35259562 -723.70975757 706.00581789 C-723.66599663 700.41648209 -723.66188629 694.82712105 -723.65357971 689.23764038 C-723.63182342 678.65530611 -723.57438056 668.07347809 -723.50413328 657.49136674 C-723.42588988 645.44316084 -723.38740326 633.39493074 -723.35226524 621.34653401 C-723.27909832 596.56407535 -723.15597453 571.78206604 -723 547 C-722.34 547 -721.68 547 -721 547 C-720.44441406 548.01835938 -719.88882812 549.03671875 -719.31640625 550.0859375 C-717.15317182 553.86566522 -714.65992358 557.23395389 -711.9375 560.625 C-711.46070801 561.22546143 -710.98391602 561.82592285 -710.49267578 562.44458008 C-705.95746426 568.12289099 -701.26342012 573.66027881 -696.52612305 579.17041016 C-695.42334217 580.49247701 -694.35011374 581.83938598 -693.29614258 583.20068359 C-686.33652198 592.07133712 -678.37272099 599.89510138 -670.37963867 607.82617188 C-667.93412423 610.25335046 -665.49678651 612.68851554 -663.06054688 615.125 C-661.48745094 616.69318173 -659.9138988 618.26090598 -658.33984375 619.828125 C-657.62191147 620.54494446 -656.90397919 621.26176392 -656.16429138 622.00030518 C-651.59738724 626.5250498 -646.88405327 630.82057061 -642 635 C-641.19559479 635.6958596 -641.19559479 635.6958596 -640.37493896 636.40577698 C-633.05748676 642.72536189 -625.58499654 648.80176413 -617.85205078 654.60742188 C-616.56363891 655.57619347 -615.27838134 656.5491685 -613.99560547 657.52539062 C-549.18463072 706.80020204 -473.10280311 742.09248816 -392.4375 754.8125 C-390.58644653 755.10495605 -390.58644653 755.10495605 -388.69799805 755.40332031 C-370.87625935 758.06900015 -353.191127 759.35470263 -335.17138672 759.31567383 C-332.13342476 759.31250878 -329.09643705 759.33612288 -326.05859375 759.36132812 C-307.77431441 759.42109482 -289.74484202 757.57862483 -271.9375 753.3125 C-270.86226074 753.05758789 -269.78702148 752.80267578 -268.67919922 752.54003906 C-230.985577 743.2484585 -192.14432609 722.94661419 -171.00439453 689.14575195 C-162.94131096 675.79276894 -159.42542704 662.97325507 -159.5625 647.375 C-159.57079834 646.1487793 -159.57909668 644.92255859 -159.58764648 643.65917969 C-160.10836797 615.46980183 -171.98862252 592.79273349 -191.25 572.4375 C-200.06290276 563.94949688 -210.37489505 556.98579332 -221 551 C-222.13864502 550.35490479 -222.13864502 550.35490479 -223.30029297 549.69677734 C-271.38251191 522.7868339 -326.09067881 509.54927047 -378.94921875 495.484375 C-385.11215334 493.84440369 -391.27499343 492.20407906 -397.4375 490.5625 C-398.59586805 490.25394829 -398.59586805 490.25394829 -399.77763748 489.93916321 C-437.89424127 479.78243511 -475.74293605 469.0036229 -513 456 C-514.22976563 455.57122559 -515.45953125 455.14245117 -516.7265625 454.70068359 C-538.79908656 446.92982107 -560.3870523 437.79382685 -581.14306641 426.96533203 C-583.11335576 425.9410717 -585.09339122 424.93730636 -587.07421875 423.93359375 C-609.7518987 412.32537584 -630.90921629 397.86006713 -650 381 C-650.845625 380.26523437 -651.69125 379.53046875 -652.5625 378.7734375 C-663.26544072 369.33975578 -673.30788934 359.33159976 -682 348 C-682.42490723 347.45682129 -682.84981445 346.91364258 -683.28759766 346.35400391 C-690.99038496 336.4725945 -697.26152431 326.12621646 -703 315 C-703.62455078 313.80576416 -703.62455078 313.80576416 -704.26171875 312.58740234 C-721.55087667 279.21267789 -731.03295414 240.67971226 -731.203125 203.05078125 C-731.21167511 201.52809883 -731.21167511 201.52809883 -731.22039795 199.97465515 C-731.22978331 197.8342694 -731.23635596 195.69386961 -731.24023438 193.5534668 C-731.24984046 190.36544687 -731.28088561 187.17810096 -731.3125 183.99023438 C-731.41076739 165.04385985 -729.66849127 146.31199691 -725.4375 127.8125 C-725.18629395 126.70922363 -724.93508789 125.60594727 -724.67626953 124.46923828 C-719.27720972 101.83900114 -710.73936742 80.59130812 -700 60 C-699.59394531 59.21818359 -699.18789063 58.43636719 -698.76953125 57.63085938 C-682.08609992 25.88678783 -657.2670709 -4.00962341 -629 -26 C-627.29048709 -27.43609702 -625.58219659 -28.87365018 -623.875 -30.3125 C-563.39182792 -79.65854408 -485.82655914 -106.11490186 -409 -115 C-408.00355469 -115.11714355 -407.00710938 -115.23428711 -405.98046875 -115.35498047 C-324.15737889 -124.47202343 -237.74652888 -110.12045502 0 0 Z " fill="#FBFDFD" transform="translate(985,255)"/>
</svg>
